<?xml version="1.0" encoding="UTF-8" standalone="no"?>
<svg
   xmlns:dc="http://purl.org/dc/elements/1.1/"
   xmlns:cc="http://creativecommons.org/ns#"
   xmlns:rdf="http://www.w3.org/1999/02/22-rdf-syntax-ns#"
   xmlns:svg="http://www.w3.org/2000/svg"
   xmlns="http://www.w3.org/2000/svg"
   xmlns:sodipodi="http://sodipodi.sourceforge.net/DTD/sodipodi-0.dtd"
   xmlns:inkscape="http://www.inkscape.org/namespaces/inkscape"
   enable-background="new 0 0 32 32"
   height="32px"
   id="Layer_1"
   version="1.1"
   viewBox="0 0 32 32"
   width="32px"
   x="0px"
   xml:space="preserve"
   y="0px"
   inkscape:version="0.48.2 r9819"
   sodipodi:docname="1380149802_script_play.svg"><metadata
     id="metadata3075"><rdf:RDF><cc:Work
         rdf:about=""><dc:format>image/svg+xml</dc:format><dc:type
           rdf:resource="http://purl.org/dc/dcmitype/StillImage" /></cc:Work></rdf:RDF></metadata><defs
     id="defs3073" /><sodipodi:namedview
     pagecolor="#ffffff"
     bordercolor="#666666"
     borderopacity="1"
     objecttolerance="10"
     gridtolerance="10"
     guidetolerance="10"
     inkscape:pageopacity="0"
     inkscape:pageshadow="2"
     inkscape:window-width="1478"
     inkscape:window-height="1116"
     id="namedview3071"
     showgrid="false"
     inkscape:zoom="23.25"
     inkscape:cx="16"
     inkscape:cy="16"
     inkscape:window-x="0"
     inkscape:window-y="0"
     inkscape:window-maximized="0"
     inkscape:current-layer="Layer_1" /><g
     id="g3059"
     style="fill:#ffffff"><defs
       id="defs3061"><rect
         height="32"
         id="SVGID_1_"
         width="32" /></defs><g
       id="g3064"
       style="fill:#ffffff"><defs
         id="defs3066"><rect
           height="32"
           id="SVGID_3_"
           width="32" /></defs><path
         d="M12.514,6.667c0,1.261-0.413,2.424-1.105,3.37h17.194    c0.861-0.864,1.398-2.062,1.398-3.37c0-2.432-1.844-4.428-4.199-4.646V2H10.099C11.558,3.032,12.514,4.737,12.514,6.667     M10.663,23.024H2.599c-0.373,0.673-0.598,1.441-0.598,2.266c0,2.576,2.073,4.666,4.629,4.666c2.557,0,4.629-2.09,4.629-4.666    C11.259,24.466,11.036,23.697,10.663,23.024 M24.172,14.229c-0.283-1.06-0.294-2.058,0.171-2.854    c0.062-0.104,0.115-0.205,0.158-0.302H9.373l1.042-1.424c0.338-0.408,0.602-0.876,0.786-1.384    c0.002-0.008,0.005-0.014,0.007-0.022c0.14-0.39,0.229-0.804,0.26-1.235c0.002-0.014,0.004-0.025,0.006-0.039H11.47    c0.006-0.101,0.015-0.2,0.015-0.302C11.485,4.089,9.413,2,6.857,2C4.3,2,2.228,4.089,2.228,6.667c0,0.243,0.023,0.481,0.06,0.715    c0.082,7.367,7.869,13.24,7.869,13.24h-0.058c1.459,1.034,2.415,2.739,2.415,4.668c0,1.954-0.982,3.683-2.472,4.71h15.76    c2.355-0.219,4.199-2.278,4.199-4.71c0-0.49-0.077-1.007-0.213-1.509c0.134-0.585,0.213-1.191,0.213-1.817    C30.001,18.28,27.529,15.177,24.172,14.229 M22.029,28.964c-3.835,0-6.944-3.136-6.944-7c0-3.866,3.109-7,6.944-7    c0.911,0,1.782,0.182,2.58,0.504c0.13,0.053,0.256,0.111,0.382,0.171c0.05,0.025,0.1,0.049,0.147,0.072    c0.12,0.062,0.239,0.125,0.354,0.191c0.044,0.027,0.088,0.054,0.131,0.081c0.363,0.222,0.705,0.478,1.021,0.761    c0.055,0.05,0.109,0.1,0.162,0.15c0.084,0.08,0.165,0.161,0.244,0.245c0.06,0.062,0.115,0.127,0.173,0.19    c0.071,0.082,0.143,0.16,0.21,0.244c0.111,0.138,0.215,0.281,0.316,0.426c0.049,0.074,0.094,0.149,0.141,0.224    c0.062,0.098,0.121,0.195,0.178,0.297c0.045,0.077,0.086,0.155,0.127,0.233c0.056,0.11,0.107,0.224,0.158,0.337    c0.033,0.069,0.066,0.142,0.096,0.213c0.074,0.181,0.143,0.364,0.201,0.554c0.014,0.047,0.025,0.095,0.039,0.142    c0.045,0.152,0.084,0.308,0.118,0.463c0.016,0.073,0.029,0.146,0.042,0.219c0.025,0.142,0.047,0.285,0.064,0.429    c0.01,0.072,0.019,0.14,0.025,0.211c0.019,0.207,0.031,0.415,0.031,0.626c0,0.006,0.002,0.011,0.002,0.019    C28.974,25.828,25.864,28.964,22.029,28.964 M20.421,25.462l4.631-3.498l-4.631-3.5V25.462z"
         fill="#231F20"
         id="path3069"
         style="fill:#ffffff" /></g></g></svg>