<?xml version="1.0" ?><!DOCTYPE svg  PUBLIC '-//W3C//DTD SVG 1.1//EN'  'http://www.w3.org/Graphics/SVG/1.1/DTD/svg11.dtd'><svg enable-background="new 0 0 32 32" height="32px" id="Layer_1" version="1.1" viewBox="0 0 32 32" width="32px" x="0px" xml:space="preserve" xmlns="http://www.w3.org/2000/svg" xmlns:xlink="http://www.w3.org/1999/xlink" y="0px"><g><defs><rect height="32" id="SVGID_1_" width="32"/></defs><g><defs><rect height="32" id="SVGID_3_" width="32"/></defs><path d="M16.001,2c-7.732,0-14,6.268-14,14c0,7.73,6.268,14,14,14    c7.732,0,14-6.27,14-14C30.001,8.269,23.733,2,16.001,2 M16.001,27.001c-6.065,0-11-4.936-11-11c0-6.065,4.935-11,11-11    c6.065,0,11,4.935,11,11C27.001,22.065,22.066,27.001,16.001,27.001" fill="#231F20"/><path d="M13.374,13.375L9,23l9.624-4.375l0.002,0.001L23,9l-9.624,4.376L13.374,13.375    z M16,14.5c0.829,0,1.5,0.672,1.5,1.5s-0.671,1.5-1.5,1.5s-1.5-0.672-1.5-1.5S15.171,14.5,16,14.5" fill="#231F20"/></g></g></svg>