<?xml version="1.0" ?><!DOCTYPE svg  PUBLIC '-//W3C//DTD SVG 1.1//EN'  'http://www.w3.org/Graphics/SVG/1.1/DTD/svg11.dtd'><svg enable-background="new 0 0 32 32" height="32px" id="Layer_1" version="1.1" viewBox="0 0 32 32" width="32px" x="0px" xml:space="preserve" xmlns="http://www.w3.org/2000/svg" xmlns:xlink="http://www.w3.org/1999/xlink" y="0px"><g><defs><rect height="32" id="SVGID_1_" width="32"/></defs><g><defs><rect height="32" id="SVGID_3_" width="32"/></defs><path d="M2.124,11.494C1.796,8.503,1.828,3.463,6.131,2.097    c0.31-0.066,0.611-0.096,0.902-0.096c2.591,0,4.392,2.448,5.075,4.265c1.077,2.865,0.39,5.769,0.445,8.788    c0.006,0.297,0.224,1.686,0.359,2.46c-0.011,0.002-0.021-0.002-0.032,0.001l-7.217,1.805C4.572,17.197,2.323,13.301,2.124,11.494     M11.453,24.85c-0.399,0.108-0.801,0.161-1.193,0.161c-0.625,0-1.23-0.133-1.777-0.395c-1.652-0.791-1.956-2.769-2.412-4.367    l7.051-1.764c0.047-0.012,0.086-0.036,0.126-0.06c0.309,0.463,0.731,0.965,0.897,1.466C14.833,21.975,14.213,24.022,11.453,24.85     M16.086,13.781c-0.374-2.127,0.045-5.629,3.025-6.629c0.447-0.103,0.876-0.151,1.287-0.151c3.624,0,5.828,3.738,6.94,6.2    c0.778,1.721,0.618,6.076,0.748,8.311c-0.033,0.002-0.065-0.002-0.099,0.007l-7.045,1.979c-0.24-0.653-0.63-1.679-0.77-1.925    C18.685,18.945,16.617,16.794,16.086,13.781 M28.542,28.114c-0.551,0.818-1.405,1.426-2.438,1.712    c-0.48,0.118-0.924,0.175-1.332,0.175c-1.971,0-3.118-1.298-3.508-3.074c-0.117-0.543-0.096-1.691-0.116-2.448l7.103-1.995    C28.706,24.175,29.52,26.658,28.542,28.114" fill="#231F20"/></g></g></svg>